<?xml version="1.0" standalone="no"?>
<!DOCTYPE svg PUBLIC "-//W3C//DTD SVG 20010904//EN"
 "http://www.w3.org/TR/2001/REC-SVG-20010904/DTD/svg10.dtd">
<svg version="1.0" xmlns="http://www.w3.org/2000/svg"
 width="512.000000pt" height="512.000000pt" viewBox="0 0 512.000000 512.000000"
 preserveAspectRatio="xMidYMid meet">
<metadata>
Created by potrace 1.11, written by Peter Selinger 2001-2013
</metadata>
<g transform="translate(0.000000,512.000000) scale(0.100000,-0.100000)"
fill="#000000" stroke="none">
<path d="M0 2560 l0 -2560 2560 0 2560 0 0 2560 0 2560 -2560 0 -2560 0 0
-2560z m2595 1482 c13 -37 40 -112 60 -167 20 -55 58 -161 85 -235 26 -74 64
-178 83 -230 50 -137 112 -309 254 -700 134 -371 186 -515 208 -570 l13 -35
10 25 c19 49 184 447 234 565 28 65 77 185 110 265 72 176 128 311 203 490 31
74 80 194 110 265 29 72 68 165 87 208 l33 78 233 2 c127 1 232 0 232 -1 0 -2
-30 -74 -66 -160 -37 -87 -77 -183 -90 -214 -13 -32 -35 -84 -48 -115 -13 -32
-97 -231 -186 -443 -89 -212 -178 -423 -197 -470 -19 -47 -63 -152 -98 -235
-70 -166 -181 -428 -255 -605 -27 -63 -75 -178 -108 -255 -32 -77 -95 -226
-138 -332 -43 -106 -82 -193 -85 -193 -5 0 -23 46 -133 352 -25 70 -52 144
-60 165 -15 39 -97 265 -181 498 -26 72 -63 173 -82 225 -19 52 -56 156 -83
230 -27 74 -69 191 -95 260 -25 69 -57 156 -70 194 -14 38 -27 71 -28 73 -4 3
-25 -48 -78 -189 -65 -173 -91 -244 -183 -486 -53 -139 -113 -299 -135 -355
-22 -56 -60 -158 -86 -227 -26 -69 -60 -159 -75 -200 -134 -358 -205 -540
-210 -540 -3 0 -65 152 -139 338 -73 185 -338 850 -588 1477 -523 1314 -475
1193 -474 1200 1 3 103 6 228 6 226 0 227 0 239 -23 7 -13 39 -93 72 -178 33
-85 120 -306 192 -490 124 -319 282 -723 320 -820 10 -25 45 -116 79 -202 33
-87 61 -162 61 -168 0 -22 17 -8 27 23 6 17 73 194 148 392 75 198 149 394
165 435 15 41 83 219 150 395 67 176 130 343 140 370 10 28 42 111 70 185 29
74 59 155 67 179 18 51 21 48 58 -57z"/>
</g>
</svg>
